# xmcd
#
# Track frame offsets:
# 150
# 21090
# 39735
# 71535
# 86722
# 106147
# 125422
# 145244
#
# Disc length: 2262 seconds
#
#
# Revision: 0
# Processed by: cddbd v1.5.1PL2 Copyright (c) Steve Scherf et al.
# Submitted via: FreeRIP 2.942 
#
DISCID=6908d408
DTITLE=Grateful Dead - From The Mars hotel
DYEAR=1974
DGENRE=Blues
TTITLE0=U.S. Blues
TTITLE1=China Doll
TTITLE2=Unbroken Chain
TTITLE3=Loose Lucy
TTITLE4=Scarlet Begonias
TTITLE5=Pride of Cucamonga
TTITLE6=Money Money
TTITLE7=Ship of Fools
EXTD=Grateful Dead Records - LP Rip
EXTT0=
EXTT1=
EXTT2=
EXTT3=
EXTT4=
EXTT5=
EXTT6=
EXTT7=
PLAYORDER=
